<svg xmlns="http://www.w3.org/2000/svg" width="25" height="17" viewBox="0 0 25 17"><g><g><path fill="#c6cacc" d="M19.797 2.997c-.014-.008-.03-.024-.045-.038-.897-.772-1.952-1.14-3.164-1.096l-.038-.08c.008-.006.015-.006.023-.006 1.1-.231 1.75-.47 1.945-.73.067-.209-.015-.324-.255-.353a6.79 6.79 0 0 0-1.519.339c.577-.339.801-.577.674-.7-.569.015-1.182.282-1.826.81.24-.377.33-.578.27-.614a5.009 5.009 0 0 0-.808.627c-.487.497-.876.96-1.175 1.378l-.015.036c-.77 1.147-1.309 2.3-1.63 3.478l-.12.086-.022.021a6.006 6.006 0 0 0-1.684-1.342c-.785-.468-1.706-.916-2.768-1.349a24.634 24.634 0 0 0-3.524-1.356c-.007 1.22.644 2.194 1.938 2.9v.022a4.45 4.45 0 0 0-1.324.18c.082 1.133.957 1.913 2.618 2.344l-.008.022c-.65-.035-1.189.174-1.608.607.546.98 1.511 1.45 2.91 1.413-.277.13-.493.273-.635.434-.255.245-.337.535-.255.866.3.497.838.727 1.631.693l.045.05-.023.02c-1.369 1.3-3.022 1.884-4.96 1.762l-.03.013C3.233 13.426 1.97 12.909.6 11.869c1.377 1.818 3.202 3.13 5.462 3.953 2.588.787 5.177.844 7.757.173h.045c2.507-.664 4.631-2.027 6.382-4.09.808-1.082 1.317-2.113 1.519-3.102 1.309.043 2.252-.303 2.835-1.038l-.014-.023c-.435.144-1.287.102-2.552-.136v-.13c0-.007 0-.007.008 0 1.384-.144 2.2-.555 2.461-1.234a4.195 4.195 0 0 1-2.858.03c-.172-1.199-.785-2.288-1.848-3.275z"/></g></g></svg>